# xmcd
#
# Track frame offsets: 
#        150
#        24577
#        40292
#        53955
#        68087
#        81642
#        93365
#        107110
#        122227
#        137805
#        152075
#        167382
#        179617
#        193492
#        209880
#        221160
#        235035
#        250200
#        264875
#        278375
#        291732
#        303132
#        315027
#        328880
#
# Disc length: 4567 seconds
#
# Revision: 0
# Processed by: cddbd v1.5.1PL2 Copyright (c) Steve Scherf et al.
# Submitted via: ExactAudioCopy v0.95a5
#
DISCID=6c11d518
DTITLE=Various Artist - Martin Scorsese Presents The Blues: A Musical Journey
DTITLE=Various Artist - Disc 1
DYEAR=2003
DGENRE=Blues
TTITLE0=Lightning and Group - Long John
TTITLE1=Mamie Smith - Crazy Blues
TTITLE2=W.C. Handy - St. Louis Blues
TTITLE3=Bessie Smith - Muddy Water
TTITLE4=Blind Lemon Jefferson - Match Box Blues
TTITLE5=Furry Lewis - Billy Lyons and Stack-O-Lee
TTITLE6="Ma" Rainey - "Ma" Rainey's Black Bottom
TTITLE7=Blind Willie Johnson - Dark Was The Night, Cold Was The Ground
TTITLE8=Louis Armstrong - Savoy Blues
TTITLE9=Frank Stokes - Downtown Blues
TTITLE10=Mississippi John Hurt - Frankie
TTITLE11=Henry Thomas - Fishing Blues
TTITLE12=Leroy Carr - How Long How Long Blues
TTITLE13=Tommy Johnson - Canned Heat Blues
TTITLE14=Blind Willie McTell - Statesboro Blues
TTITLE15=Tampa Red and Georgia Tom - It's Tight Like That
TTITLE16=Pine Top Smith - Pine Top's Boogie Woogie
TTITLE17=Lonnie Johnson - Guitar Blues
TTITLE18=Charley Patton - Pony Blues
TTITLE19=Blind Blake - Diddie Wah Diddie
TTITLE20=Memphis Jug Band - K.C. Moan
TTITLE21=Jimmie Rodgers - Standin' On The Corner (Blue Yodel # 9)
TTITLE22=Mississippi Sheiks - Sittin' On Top Of The World
TTITLE23=Son House - Preachin' The Blues
EXTD=
EXTT0=
EXTT1=
EXTT2=
EXTT3=
EXTT4=
EXTT5=
EXTT6=
EXTT7=
EXTT8=
EXTT9=
EXTT10=
EXTT11=
EXTT12=
EXTT13=
EXTT14=
EXTT15=
EXTT16=
EXTT17=
EXTT18=
EXTT19=
EXTT20=
EXTT21=
EXTT22=
EXTT23=
PLAYORDER=
